<?xml version="1.0" encoding="utf-8"?>
<!-- Generator: Adobe Illustrator 24.3.0, SVG Export Plug-In . SVG Version: 6.00 Build 0)  -->
<svg version="1.1" id="Layer_1" xmlns="http://www.w3.org/2000/svg" xmlns:xlink="http://www.w3.org/1999/xlink" x="0px" y="0px"
	 viewBox="0 0 225.9 225.9" style="enable-background:new 0 0 225.9 225.9;" xml:space="preserve">
<style type="text/css">
	.st0{fill:#1D1D1B;}
</style>
<path class="st0" d="M205.9,93h-73V20c0-11-9-20-20-20h0c-11,0-20,9-20,20v73H20c-11,0-20,9-20,20v0c0,11,9,20,20,20h73v73
	c0,11,9,20,20,20h0c11,0,20-9,20-20v-73h73c11,0,20-9,20-20v0C225.9,101.9,217,93,205.9,93z"/>
</svg>
